<svg version="1.1" id="Layer_1" xmlns="http://www.w3.org/2000/svg" x="0" y="0" viewBox="0 0 64 64" style="enable-background:new 0 0 64 64" xml:space="preserve"><style>.st1{fill:#69ebfc}.st4{fill:#d476e2}.st5{fill:#5861c7}.st7{fill:#6770e6}.st10{fill:#ea82fa}.st21{fill:#8f95e6}</style><path class="st4" d="M56 32H8a8 8 0 0 1 0-16h48a8 8 0 0 1 0 16z"/><path class="st10" d="M46 16H18V8a8 8 0 0 1 8-8h12a8 8 0 0 1 8 8v8z"/><path class="st10" d="M54 23H6v-8a8 8 0 0 1 8-8h32a8 8 0 0 1 8 8v8z"/><path class="st4" d="M46 18H18v-8a8 8 0 0 1 8-8h12a8 8 0 0 1 8 8v8z"/><path class="st4" d="M54 25H6v-8a8 8 0 0 1 8-8h32a8 8 0 0 1 8 8v8z"/><path class="st1" d="M31 29h2v19h-2z"/><path class="st1" d="M57 48h-2v-7H9v7H7v-7c0-1.103.897-2 2-2h46c1.103 0 2 .897 2 2v7z"/><path class="st7" d="M40 50H25a1 1 0 0 1-1-1v-4a1 1 0 0 1 1-1h15a1 1 0 0 1 1 1v4a1 1 0 0 1-1 1z"/><path class="st5" d="M25 50h15v1H25zM25 57h15v1H25z"/><path class="st7" d="M40 57H25a1 1 0 0 1-1-1v-4a1 1 0 0 1 1-1h15a1 1 0 0 1 1 1v4a1 1 0 0 1-1 1zM40 64H25a1 1 0 0 1-1-1v-4a1 1 0 0 1 1-1h15a1 1 0 0 1 1 1v4a1 1 0 0 1-1 1z"/><circle class="st1" cx="27" cy="47" r="1"/><path class="st5" d="M36 48h-5a1 1 0 0 1 0-2h5a1 1 0 0 1 0 2z"/><circle class="st1" cx="27" cy="54" r="1"/><path class="st5" d="M36 55h-5a1 1 0 0 1 0-2h5a1 1 0 0 1 0 2z"/><circle class="st1" cx="27" cy="61" r="1"/><path class="st5" d="M36 62h-5a1 1 0 0 1 0-2h5a1 1 0 0 1 0 2z"/><path class="st7" d="M40 15H25a1 1 0 0 1-1-1v-4a1 1 0 0 1 1-1h15a1 1 0 0 1 1 1v4a1 1 0 0 1-1 1z"/><path class="st5" d="M25 15h15v1H25zM25 22h15v1H25z"/><path class="st7" d="M40 22H25a1 1 0 0 1-1-1v-4a1 1 0 0 1 1-1h15a1 1 0 0 1 1 1v4a1 1 0 0 1-1 1zM40 29H25a1 1 0 0 1-1-1v-4a1 1 0 0 1 1-1h15a1 1 0 0 1 1 1v4a1 1 0 0 1-1 1z"/><circle class="st1" cx="27" cy="12" r="1"/><path class="st5" d="M36 13h-5a1 1 0 0 1 0-2h5a1 1 0 0 1 0 2z"/><circle class="st1" cx="27" cy="19" r="1"/><path class="st5" d="M36 20h-5a1 1 0 0 1 0-2h5a1 1 0 0 1 0 2z"/><circle class="st1" cx="27" cy="26" r="1"/><path class="st5" d="M36 27h-5a1 1 0 0 1 0-2h5a1 1 0 0 1 0 2z"/><path class="st7" d="M63 50H48a1 1 0 0 1-1-1v-4a1 1 0 0 1 1-1h15a1 1 0 0 1 1 1v4a1 1 0 0 1-1 1z"/><path class="st21" d="M63 44H48a1 1 0 0 0-1 1v1a1 1 0 0 1 1-1h15a1 1 0 0 1 1 1v-1a1 1 0 0 0-1-1zM40 44H25a1 1 0 0 0-1 1v1a1 1 0 0 1 1-1h15a1 1 0 0 1 1 1v-1a1 1 0 0 0-1-1zM40 9H25a1 1 0 0 0-1 1v1a1 1 0 0 1 1-1h15a1 1 0 0 1 1 1v-1a1 1 0 0 0-1-1z"/><path class="st7" d="M16 50H1a1 1 0 0 1-1-1v-4a1 1 0 0 1 1-1h15a1 1 0 0 1 1 1v4a1 1 0 0 1-1 1z"/><path class="st21" d="M16 44H1a1 1 0 0 0-1 1v1a1 1 0 0 1 1-1h15a1 1 0 0 1 1 1v-1a1 1 0 0 0-1-1z"/><path class="st5" d="M48 50h15v1H48zM48 57h15v1H48z"/><path class="st7" d="M63 57H48a1 1 0 0 1-1-1v-4a1 1 0 0 1 1-1h15a1 1 0 0 1 1 1v4a1 1 0 0 1-1 1zM63 64H48a1 1 0 0 1-1-1v-4a1 1 0 0 1 1-1h15a1 1 0 0 1 1 1v4a1 1 0 0 1-1 1z"/><circle class="st1" cx="50" cy="47" r="1"/><path class="st5" d="M59 48h-5a1 1 0 0 1 0-2h5a1 1 0 0 1 0 2z"/><circle class="st1" cx="50" cy="54" r="1"/><path class="st5" d="M59 55h-5a1 1 0 0 1 0-2h5a1 1 0 0 1 0 2z"/><circle class="st1" cx="50" cy="61" r="1"/><path class="st5" d="M59 62h-5a1 1 0 0 1 0-2h5a1 1 0 0 1 0 2zM1 50h15v1H1zM1 57h15v1H1z"/><path class="st7" d="M16 57H1a1 1 0 0 1-1-1v-4a1 1 0 0 1 1-1h15a1 1 0 0 1 1 1v4a1 1 0 0 1-1 1zM16 64H1a1 1 0 0 1-1-1v-4a1 1 0 0 1 1-1h15a1 1 0 0 1 1 1v4a1 1 0 0 1-1 1z"/><path class="st5" d="M16 63H1a1 1 0 0 1-1-1v1a1 1 0 0 0 1 1h15a1 1 0 0 0 1-1v-1a1 1 0 0 1-1 1z"/><circle class="st1" cx="3" cy="47" r="1"/><path class="st5" d="M12 48H7a1 1 0 0 1 0-2h5a1 1 0 0 1 0 2z"/><circle class="st1" cx="3" cy="54" r="1"/><path class="st5" d="M12 55H7a1 1 0 0 1 0-2h5a1 1 0 0 1 0 2z"/><circle class="st1" cx="3" cy="61" r="1"/><path class="st5" d="M12 62H7a1 1 0 0 1 0-2h5a1 1 0 0 1 0 2zM40 63H25a1 1 0 0 1-1-1v1a1 1 0 0 0 1 1h15a1 1 0 0 0 1-1v-1a1 1 0 0 1-1 1zM63 63H48a1 1 0 0 1-1-1v1a1 1 0 0 0 1 1h15a1 1 0 0 0 1-1v-1a1 1 0 0 1-1 1z"/></svg>